<svg xmlns="http://www.w3.org/2000/svg" width="640" height="480" viewBox="0 0 640 480" preserveAspectRatio="xMidYMid slice" role="img">
  <rect width="640" height="480" fill="#0E1018"/>
  <line x1="60" y1="0" x2="60" y2="480" stroke="#ffffff" stroke-opacity="0.028"/><line x1="120" y1="0" x2="120" y2="480" stroke="#ffffff" stroke-opacity="0.028"/><line x1="180" y1="0" x2="180" y2="480" stroke="#ffffff" stroke-opacity="0.028"/><line x1="240" y1="0" x2="240" y2="480" stroke="#ffffff" stroke-opacity="0.028"/><line x1="300" y1="0" x2="300" y2="480" stroke="#ffffff" stroke-opacity="0.028"/><line x1="360" y1="0" x2="360" y2="480" stroke="#ffffff" stroke-opacity="0.028"/><line x1="420" y1="0" x2="420" y2="480" stroke="#ffffff" stroke-opacity="0.028"/><line x1="480" y1="0" x2="480" y2="480" stroke="#ffffff" stroke-opacity="0.028"/><line x1="540" y1="0" x2="540" y2="480" stroke="#ffffff" stroke-opacity="0.028"/><line x1="600" y1="0" x2="600" y2="480" stroke="#ffffff" stroke-opacity="0.028"/><line x1="0" y1="60" x2="640" y2="60" stroke="#ffffff" stroke-opacity="0.028"/><line x1="0" y1="120" x2="640" y2="120" stroke="#ffffff" stroke-opacity="0.028"/><line x1="0" y1="180" x2="640" y2="180" stroke="#ffffff" stroke-opacity="0.028"/><line x1="0" y1="240" x2="640" y2="240" stroke="#ffffff" stroke-opacity="0.028"/><line x1="0" y1="300" x2="640" y2="300" stroke="#ffffff" stroke-opacity="0.028"/><line x1="0" y1="360" x2="640" y2="360" stroke="#ffffff" stroke-opacity="0.028"/><line x1="0" y1="420" x2="640" y2="420" stroke="#ffffff" stroke-opacity="0.028"/>
  <text x="320" y="120" text-anchor="middle" font-family="ui-monospace, SFMono-Regular, Menlo, Consolas, 'Liberation Mono', monospace" font-size="150" font-weight="700" fill="#ffffff" fill-opacity="0.03">&lt;/&gt;</text>

  <rect x="40" y="142" width="560" height="148" rx="10" fill="#1c2131" stroke="#ffffff" stroke-opacity="0.07"/>
  <path d="M40 152 a10 10 0 0 1 10 -10 h540 a10 10 0 0 1 10 10 v22 h-560 z" fill="#242a3c"/>
  <line x1="40" y1="174" x2="600" y2="174" stroke="#ffffff" stroke-opacity="0.07"/>
  <circle cx="62" cy="158.0" r="4" fill="none" stroke="#8b7bff" stroke-width="1.5"/>
  <circle cx="79" cy="158.0" r="4" fill="none" stroke="#22d3ee" stroke-width="1.5"/>
  <circle cx="96" cy="158.0" r="4" fill="none" stroke="#4a5169" stroke-width="1.5"/>
  <text x="580" y="162.5" text-anchor="end" font-family="ui-monospace, SFMono-Regular, Menlo, Consolas, 'Liberation Mono', monospace" font-size="13" fill="#8b93a8">OrderController.php</text>

  <text x="68" y="198" font-family="ui-monospace, SFMono-Regular, Menlo, Consolas, 'Liberation Mono', monospace" font-size="17"><tspan fill="#a78bfa" xml:space="preserve">public function </tspan><tspan fill="#22d3ee" xml:space="preserve">index</tspan><tspan fill="#c9d1e4" xml:space="preserve">()</tspan></text>
  <text x="68" y="221" font-family="ui-monospace, SFMono-Regular, Menlo, Consolas, 'Liberation Mono', monospace" font-size="17"><tspan fill="#a78bfa" xml:space="preserve">    return </tspan><tspan fill="#a78bfa" xml:space="preserve">Order</tspan><tspan fill="#c9d1e4" xml:space="preserve">::</tspan><tspan fill="#22d3ee" xml:space="preserve">all</tspan><tspan fill="#c9d1e4" xml:space="preserve">();</tspan></text>
  <rect x="68" y="234" width="300" height="4" rx="2" fill="#3a4055" fill-opacity="0.85"/><rect x="68" y="244" width="380" height="4" rx="2" fill="#3a4055" fill-opacity="0.6"/>

  <text x="68" y="267" font-family="ui-monospace, SFMono-Regular, Menlo, Consolas, 'Liberation Mono', monospace" font-size="14" fill="#22d3ee">✓ phpunit: 186 passed</text>
  <text x="68" y="284" font-family="ui-monospace, SFMono-Regular, Menlo, Consolas, 'Liberation Mono', monospace" font-size="14" fill="#6b7488">➜ php-fpm: opcache on</text>

  <rect x="40" y="302" width="73" height="32" rx="8" fill="none" stroke="#22d3ee" stroke-opacity="0.5"/><text x="76.5" y="325" text-anchor="middle" font-family="Inter, -apple-system, 'Segoe UI', Roboto, Arial, sans-serif" font-size="14" font-weight="700" fill="#ffffff">PHP 8+</text><rect x="125" y="302" width="139" height="32" rx="8" fill="none" stroke="#ffffff" stroke-opacity="0.16"/><text x="194.5" y="325" text-anchor="middle" font-family="Inter, -apple-system, 'Segoe UI', Roboto, Arial, sans-serif" font-size="14" font-weight="700" fill="#ffffff">Laravel · Symfony</text><rect x="276" y="302" width="140" height="32" rx="8" fill="none" stroke="#ffffff" stroke-opacity="0.1"/><text x="346.0" y="325" text-anchor="middle" font-family="Inter, -apple-system, 'Segoe UI', Roboto, Arial, sans-serif" font-size="14" font-weight="600" fill="#8b93a8">Сайты · CRM · API</text>
</svg>
