<svg xmlns="http://www.w3.org/2000/svg" fill="none" viewBox="0 0 205 68" height="68" width="205">
<g clip-path="url(#clip0_1430_6332)">
<path fill="#2C2A47" d="M29.9171 40.7962V24.6422C29.9171 24.5653 29.8872 24.4915 29.8339 24.437C29.7806 24.3826 29.7084 24.3521 29.6331 24.3521H27.3615C27.2862 24.3521 27.2139 24.3826 27.1607 24.437C27.1074 24.4915 27.0775 24.5653 27.0775 24.6422V43.4079C27.0775 43.4849 27.1074 43.5587 27.1607 43.6131C27.2139 43.6676 27.2862 43.6981 27.3615 43.6981H39.0983C39.1736 43.6981 39.2458 43.6676 39.2991 43.6131C39.3523 43.5587 39.3823 43.4849 39.3823 43.4079V41.0864C39.3823 41.0094 39.3523 40.9356 39.2991 40.8812C39.2458 40.8268 39.1736 40.7962 39.0983 40.7962H29.9171Z"></path>
<path fill="#2C2A47" d="M59.252 24.3521H45.6221C45.4653 24.3521 45.3381 24.482 45.3381 24.6422V26.9638C45.3381 27.124 45.4653 27.254 45.6221 27.254H59.252C59.4088 27.254 59.5359 27.124 59.5359 26.9638V24.6422C59.5359 24.482 59.4088 24.3521 59.252 24.3521Z"></path>
<path fill="#2C2A47" d="M59.252 40.7961H45.6221C45.4653 40.7961 45.3381 40.9261 45.3381 41.0863V43.4079C45.3381 43.5681 45.4653 43.6981 45.6221 43.6981H59.252C59.4088 43.6981 59.5359 43.5681 59.5359 43.4079V41.0863C59.5359 40.9261 59.4088 40.7961 59.252 40.7961Z"></path>
<path fill="#2C2A47" d="M59.252 32.5634H45.6221C45.4653 32.5634 45.3381 32.6933 45.3381 32.8535V35.1751C45.3381 35.3353 45.4653 35.4653 45.6221 35.4653H59.252C59.4088 35.4653 59.5359 35.3353 59.5359 35.1751V32.8535C59.5359 32.6933 59.4088 32.5634 59.252 32.5634Z"></path>
<path fill="#2C2A47" d="M159.187 24.3521H145.557C145.401 24.3521 145.273 24.482 145.273 24.6422V26.9638C145.273 27.124 145.401 27.254 145.557 27.254H159.187C159.344 27.254 159.471 27.124 159.471 26.9638V24.6422C159.471 24.482 159.344 24.3521 159.187 24.3521Z"></path>
<path fill="#2C2A47" d="M159.187 40.7961H145.557C145.401 40.7961 145.273 40.9261 145.273 41.0863V43.4079C145.273 43.5681 145.401 43.6981 145.557 43.6981H159.187C159.344 43.6981 159.471 43.5681 159.471 43.4079V41.0863C159.471 40.9261 159.344 40.7961 159.187 40.7961Z"></path>
<path fill="#2C2A47" d="M159.187 32.5634H145.557C145.401 32.5634 145.273 32.6933 145.273 32.8535V35.1751C145.273 35.3353 145.401 35.4653 145.557 35.4653H159.187C159.344 35.4653 159.471 35.3353 159.471 35.1751V32.8535C159.471 32.6933 159.344 32.5634 159.187 32.5634Z"></path>
<path fill="#2C2A47" d="M104.401 24.3521H102.129C101.973 24.3521 101.845 24.482 101.845 24.6422V43.4079C101.845 43.5682 101.973 43.6981 102.129 43.6981H104.401C104.558 43.6981 104.685 43.5682 104.685 43.4079V24.6422C104.685 24.482 104.558 24.3521 104.401 24.3521Z"></path>
<path fill="#2C2A47" d="M98.7218 32.5771H91.4336V24.6422C91.4336 24.6041 91.4263 24.5664 91.412 24.5312C91.3977 24.496 91.3768 24.464 91.3505 24.437C91.3241 24.4101 91.2928 24.3887 91.2583 24.3741C91.2239 24.3596 91.187 24.352 91.1497 24.3521H88.878C88.8027 24.3521 88.7305 24.3826 88.6772 24.4371C88.624 24.4915 88.5941 24.5653 88.5941 24.6422V32.5771H86.0385C85.9632 32.5771 85.8909 32.6077 85.8377 32.6621C85.7844 32.7165 85.7545 32.7903 85.7545 32.8673V35.1888C85.7545 35.2657 85.7845 35.3395 85.8377 35.394C85.891 35.4484 85.9632 35.479 86.0385 35.479H88.5941V43.4079C88.5941 43.4849 88.624 43.5587 88.6772 43.6131C88.7305 43.6675 88.8027 43.6981 88.878 43.6981H91.1497C91.187 43.6981 91.2239 43.6906 91.2583 43.676C91.2928 43.6615 91.3241 43.6401 91.3505 43.6131C91.3768 43.5862 91.3977 43.5542 91.412 43.519C91.4263 43.4838 91.4336 43.446 91.4336 43.4079V35.479H98.7218C98.7591 35.479 98.796 35.4715 98.8305 35.4569C98.8649 35.4423 98.8962 35.4209 98.9226 35.394C98.949 35.367 98.9699 35.335 98.9842 35.2998C98.9984 35.2646 99.0058 35.2269 99.0058 35.1888V32.8673C99.0058 32.8291 98.9984 32.7914 98.9842 32.7562C98.9699 32.721 98.949 32.689 98.9226 32.6621C98.8962 32.6351 98.8649 32.6137 98.8305 32.5991C98.796 32.5846 98.7591 32.5771 98.7218 32.5771Z"></path>
<path fill="#2C2A47" d="M16.6324 35.4654H19.7822C19.8575 35.4654 19.9297 35.4348 19.983 35.3804C20.0362 35.326 20.0662 35.2521 20.0662 35.1752V32.8536C20.0662 32.7767 20.0362 32.7029 19.983 32.6485C19.9297 32.594 19.8575 32.5635 19.7822 32.5635H15.3682L11.8908 24.5816C11.861 24.5133 11.8125 24.4552 11.7511 24.4145C11.6897 24.3737 11.6181 24.3521 11.5449 24.3521H8.71051C8.63732 24.3521 8.56569 24.3737 8.50431 24.4145C8.44292 24.4552 8.39441 24.5133 8.36464 24.5816L4.88729 32.5635H0.473226C0.397916 32.5635 0.325691 32.594 0.272439 32.6485C0.219187 32.7029 0.18927 32.7767 0.18927 32.8536V35.1752C0.18927 35.2521 0.219187 35.326 0.272439 35.3804C0.325691 35.4348 0.397916 35.4654 0.473226 35.4654H3.62299L0.214169 43.2899C0.194918 43.3341 0.18678 43.3825 0.190494 43.4307C0.194208 43.4789 0.209656 43.5254 0.235435 43.566C0.261213 43.6065 0.296504 43.6399 0.338099 43.663C0.379694 43.686 0.426274 43.6981 0.473604 43.6981H3.00858C3.08178 43.6981 3.15341 43.6764 3.2148 43.6357C3.27618 43.595 3.3247 43.5369 3.35447 43.4686L10.1277 27.9215L16.901 43.4686C16.9307 43.5369 16.9792 43.595 17.0406 43.6357C17.102 43.6764 17.1736 43.6981 17.2468 43.6981H19.7819C19.8292 43.6981 19.8758 43.686 19.9174 43.663C19.959 43.6399 19.9943 43.6065 20.02 43.566C20.0458 43.5254 20.0612 43.4789 20.065 43.4307C20.0687 43.3825 20.0605 43.3341 20.0413 43.2899L16.6324 35.4654Z"></path>
<path fill="#2C2A47" d="M81.0742 28.6348C80.5488 27.365 79.6689 26.2815 78.5445 25.5198C77.42 24.7582 76.1009 24.352 74.7518 24.3521L66.7537 24.3521C66.6784 24.3521 66.6062 24.3826 66.553 24.4371C66.4997 24.4915 66.4698 24.5653 66.4698 24.6422V26.9638C66.4698 27.0407 66.4997 27.1145 66.553 27.169C66.6062 27.2234 66.6784 27.254 66.7537 27.254H74.7518C75.2801 27.2538 75.8033 27.36 76.2914 27.5665C76.7796 27.7731 77.2231 28.0759 77.5967 28.4577C77.9703 28.8395 78.2666 29.2927 78.4687 29.7916C78.6708 30.2904 78.7747 30.8251 78.7745 31.365V31.365C78.7747 31.905 78.6708 32.4396 78.4687 32.9385C78.2666 33.4373 77.9703 33.8906 77.5967 34.2724C77.2231 34.6542 76.7796 34.957 76.2915 35.1635C75.8033 35.3701 75.2801 35.4763 74.7518 35.4761L66.7537 35.476C66.6784 35.4761 66.6062 35.5066 66.553 35.5611C66.4997 35.6155 66.4698 35.6893 66.4698 35.7662V43.4079C66.4698 43.4849 66.4997 43.5587 66.553 43.6131C66.6062 43.6675 66.6784 43.6981 66.7537 43.6981H69.0254C69.0627 43.6981 69.0996 43.6906 69.1341 43.676C69.1685 43.6615 69.1998 43.6401 69.2262 43.6131C69.2526 43.5862 69.2735 43.5542 69.2877 43.519C69.302 43.4838 69.3094 43.446 69.3093 43.4079V38.378L74.7518 38.378C75.653 38.3781 76.5455 38.1969 77.3781 37.8445C78.2107 37.4922 78.9673 36.9756 79.6045 36.3243C80.2418 35.6731 80.7473 34.8999 81.092 34.049C81.4368 33.1981 81.6142 32.286 81.614 31.365L81.6141 31.365C81.615 30.4271 81.4314 29.4987 81.0742 28.6348Z"></path>
<path fill="#2C2A47" d="M180.385 35.2871C181.151 34.1291 181.56 32.7629 181.558 31.3651L181.558 31.365C181.558 30.444 181.381 29.532 181.036 28.6811C180.691 27.8301 180.186 27.0569 179.549 26.4057C178.911 25.7545 178.155 25.2379 177.322 24.8856C176.489 24.5332 175.597 24.3519 174.696 24.3521L166.698 24.3521C166.622 24.3521 166.55 24.3827 166.497 24.4371C166.444 24.4915 166.414 24.5653 166.414 24.6422V26.9638C166.414 27.0407 166.444 27.1145 166.497 27.169C166.55 27.2234 166.622 27.254 166.698 27.254H174.696C175.224 27.2538 175.747 27.36 176.235 27.5666C176.724 27.7731 177.167 28.0759 177.541 28.4577C177.914 28.8395 178.211 29.2927 178.413 29.7916C178.615 30.2904 178.719 30.8251 178.719 31.365V31.3651C178.719 31.905 178.615 32.4397 178.413 32.9385C178.211 33.4374 177.914 33.8906 177.541 34.2724C177.167 34.6542 176.724 34.957 176.235 35.1635C175.747 35.3701 175.224 35.4763 174.696 35.4761L166.698 35.476C166.622 35.4761 166.55 35.5066 166.497 35.5611C166.444 35.6155 166.414 35.6893 166.414 35.7662V43.4079C166.414 43.4849 166.444 43.5587 166.497 43.6131C166.55 43.6675 166.622 43.6981 166.698 43.6981H168.969C169.007 43.6981 169.044 43.6906 169.078 43.676C169.112 43.6615 169.144 43.6401 169.17 43.6131C169.197 43.5862 169.217 43.5542 169.232 43.519C169.246 43.4838 169.253 43.446 169.253 43.4079V38.378L174.696 38.378C175.171 38.378 175.645 38.3277 176.11 38.2279L178.418 43.526C178.44 43.5773 178.477 43.6208 178.523 43.6513C178.569 43.6819 178.622 43.6981 178.677 43.6981H181.274C181.321 43.6981 181.368 43.6861 181.409 43.663C181.451 43.6399 181.486 43.6066 181.512 43.566C181.538 43.5255 181.553 43.4789 181.557 43.4307C181.561 43.3825 181.552 43.3341 181.533 43.2899L178.789 36.9899C179.411 36.518 179.95 35.9424 180.385 35.2871Z"></path>
<path fill="#2C2A47" d="M139.034 24.3521H125.404C125.329 24.3521 125.256 24.3826 125.203 24.437C125.15 24.4915 125.12 24.5653 125.12 24.6422V26.9638C125.12 27.0407 125.15 27.1145 125.203 27.169C125.256 27.2234 125.329 27.254 125.404 27.254H135.098L131.327 32.1711C131.299 32.2083 131.281 32.2528 131.276 32.2997C131.271 32.3466 131.279 32.394 131.3 32.4364C131.32 32.4788 131.351 32.5145 131.39 32.5395C131.429 32.5646 131.475 32.5778 131.521 32.5778H134.386C134.472 32.5778 134.557 32.5578 134.635 32.5193C134.712 32.4807 134.78 32.4247 134.833 32.3554L139.197 26.6647C139.275 26.5626 139.318 26.4365 139.318 26.3067V24.6422C139.318 24.5653 139.288 24.4915 139.235 24.437C139.181 24.3826 139.109 24.3521 139.034 24.3521Z"></path>
<path fill="#2C2A47" d="M139.033 40.7962H128.36L132.125 35.8864C132.154 35.8493 132.171 35.8047 132.176 35.7578C132.181 35.7109 132.173 35.6636 132.153 35.6212C132.133 35.5788 132.101 35.543 132.062 35.518C132.023 35.493 131.978 35.4797 131.931 35.4797H129.066C128.98 35.4797 128.895 35.4998 128.818 35.5383C128.74 35.5768 128.672 35.6329 128.619 35.7021L124.294 41.3426C124.216 41.4448 124.173 41.5708 124.173 41.7006V43.408C124.173 43.4849 124.203 43.5587 124.256 43.6131C124.31 43.6676 124.382 43.6981 124.457 43.6981H139.033C139.109 43.6981 139.181 43.6676 139.234 43.6131C139.288 43.5587 139.317 43.4849 139.317 43.408V41.0864C139.317 41.0095 139.288 40.9356 139.234 40.8812C139.181 40.8268 139.109 40.7962 139.033 40.7962Z"></path>
<path fill="#2C2A47" d="M202.049 35.4583C201.982 35.4587 201.917 35.4831 201.866 35.5272C201.815 35.5713 201.781 35.6324 201.769 35.6997C201.689 36.1526 201.57 36.5974 201.414 37.0288C200.991 38.2311 200.216 39.2706 199.193 40.005C198.183 40.7067 196.987 41.0754 195.766 41.0613C194.943 41.0662 194.128 40.9028 193.368 40.5807C192.258 40.1021 191.322 39.2793 190.693 38.2282C190.231 37.4521 189.917 36.5943 189.765 35.6995C189.753 35.6323 189.719 35.5713 189.668 35.5272C189.617 35.4831 189.553 35.4587 189.486 35.4583H187.182C187.141 35.4581 187.101 35.4669 187.064 35.4839C187.027 35.501 186.994 35.5259 186.967 35.5571C186.941 35.5883 186.921 35.6249 186.909 35.6646C186.897 35.7043 186.894 35.7461 186.9 35.7871C187.006 36.5593 187.194 37.3175 187.46 38.0484C188.069 39.7957 189.197 41.3048 190.686 42.3652C192.175 43.4256 193.951 43.9842 195.766 43.9632C196.966 43.968 198.155 43.7276 199.263 43.2561C200.917 42.5439 202.311 41.3215 203.251 39.7597C203.975 38.5474 204.446 37.1949 204.633 35.7874C204.638 35.7463 204.635 35.7045 204.623 35.6648C204.612 35.6251 204.592 35.5884 204.565 35.5572C204.538 35.526 204.505 35.5011 204.468 35.484C204.431 35.4669 204.391 35.4582 204.351 35.4583L202.049 35.4583Z"></path>
<path fill="#2C2A47" d="M189.48 32.5562C189.547 32.5558 189.612 32.5313 189.663 32.4871C189.714 32.4428 189.748 32.3816 189.76 32.3142C189.84 31.8564 189.96 31.4068 190.118 30.9709C190.54 29.7686 191.316 28.7292 192.338 27.9947C193.348 27.293 194.545 26.9243 195.766 26.9384C196.588 26.9336 197.403 27.097 198.163 27.419C199.274 27.8976 200.21 28.7204 200.839 29.7715C201.303 30.5518 201.618 31.4145 201.77 32.3145C201.781 32.3818 201.815 32.4429 201.866 32.4871C201.917 32.5313 201.982 32.5557 202.048 32.5562H204.352C204.392 32.5563 204.432 32.5475 204.469 32.5305C204.506 32.5135 204.539 32.4886 204.566 32.4575C204.593 32.4263 204.613 32.3897 204.624 32.3501C204.636 32.3104 204.64 32.2687 204.634 32.2276C204.528 31.4503 204.34 30.687 204.072 29.9513C203.463 28.2041 202.335 26.6949 200.846 25.6345C199.357 24.5742 197.581 24.0155 195.766 24.0366C194.566 24.0317 193.376 24.2721 192.268 24.7437C190.615 25.4558 189.221 26.6782 188.281 28.24C187.554 29.4567 187.083 30.8145 186.897 32.2273C186.891 32.2684 186.895 32.3102 186.906 32.3499C186.918 32.3896 186.938 32.4262 186.965 32.4573C186.991 32.4885 187.024 32.5134 187.061 32.5305C187.098 32.5475 187.138 32.5563 187.179 32.5562L189.48 32.5562Z"></path>
</g>
<defs>
<clipPath id="clip0_1430_6332">
<rect transform="translate(0 23.8433)" fill="white" height="20.3134" width="204.827"></rect>
</clipPath>
</defs>
</svg>
