<svg xmlns="http://www.w3.org/2000/svg" viewBox="0 0 432.22 64.8" fill="#ffffff" aria-hidden="true"><g transform="matrix(2.938775357679751,0,0,2.938775357679751,0.0000014615301424646628,-5.045710762402244)"><path d="M4.66 11.52 c0.44 0.44 0.72 1.04 0.72 1.7 l0 4.38 c0 1.32 -1.08 2.4 -2.4 2.4 l-2.96 0 l-0.02 -14.24 l2.64 0 c1.46 0.06 2.32 1.46 2.3 2.78 l-0.02 1.98 c0 0.36 -0.1 0.7 -0.26 1 z M2.98 18.08 c0.28 0 0.5 -0.22 0.5 -0.48 l-0.02 -4.38 c0 -0.28 -0.22 -0.48 -0.48 -0.48 l-1.06 0 l0 5.34 l1.06 0 z M1.9 7.66 l0 3.16 l0.8 0 c0.16 0 0.32 -0.14 0.32 -0.32 l0.02 -1.98 c0 -0.4 -0.2 -0.84 -0.48 -0.86 l-0.66 0 z M10.8745 20.04 c-1.62 0 -2.94 -1.32 -2.94 -2.94 l0 -11.36 l1.9 0 l0 11.36 c0 0.58 0.46 1.06 1.04 1.06 s1.04 -0.48 1.04 -1.06 l0 -11.36 l1.9 0 l0 11.36 c0 1.62 -1.32 2.94 -2.94 2.94 z M19.089 20.02 l-2.5 0 l0 -14.26 l2.5 0 c1.7 0 3.06 1.38 3.06 3.08 l0 8.1 c0 0.82 -0.32 1.6 -0.9 2.18 s-1.34 0.9 -2.16 0.9 z M18.489 7.68 l0 10.42 l0.6 0 c0.3 0 0.6 -0.12 0.82 -0.34 s0.34 -0.5 0.34 -0.82 l0 -8.1 c0 -0.64 -0.52 -1.16 -1.16 -1.16 l-0.6 0 z M27.8835 20.16 l-0.44 0 c-1.4 0 -2.52 -1.12 -2.52 -2.52 l0 -9.64 c0 -1.4 1.12 -2.54 2.52 -2.54 l0.44 0 c1.4 0 2.52 1.14 2.52 2.54 l0 1.02 l-1.96 0 l0 -1.02 c0 -0.34 -0.24 -0.58 -0.56 -0.58 l-0.44 0 c-0.3 0 -0.58 0.24 -0.58 0.58 l0 9.64 c0 0.3 0.28 0.58 0.58 0.58 l0.44 0 c0.32 0 0.56 -0.28 0.56 -0.58 l0 -5.2 l-1.12 0 l0 -1.94 l3.08 0 l0 7.14 c0 1.4 -1.12 2.52 -2.52 2.52 z M37.838 12.46 l-2.76 0 l0 5.64 l2.78 0 l0 1.9 l-4.68 0 l0 -14.28 l4.68 0 l0 1.9 l-2.78 0 l0 2.94 l2.76 0 l0 1.9 z M47.5525 5.68 l0 1.92 l-2.38 0 l0 12.42 l-1.92 0 l0 -12.42 l-2.62 0 l0 -1.92 l6.92 0 z"/></g><g transform="matrix(1.745125499656819,0,0,1.745125499656819,160,0)"><path d="M74.244,0.089c-5.195,0-9.898,2.069-13.299,5.413c-3.4-3.344-8.093-5.413-13.274-5.413c-5.789,0-10.963,2.586-14.41,6.645  C29.815,2.627,24.618,0,18.788,0C8.414,0,0,8.292,0,18.52c0,10.229,8.414,18.522,18.788,18.522c5.788,0,10.946-2.59,14.387-6.648  c3.447,4.115,8.661,6.738,14.496,6.738c5.229,0,9.958-2.111,13.364-5.51c3.396,3.293,8.058,5.33,13.209,5.33  c10.378,0,18.792-8.252,18.792-18.431C93.036,8.34,84.622,0.089,74.244,0.089z M18.646,34.397c-8.631,0-15.633-6.984-15.633-15.601  c0-8.612,7.002-15.596,15.633-15.596c5.185,0,9.765,2.532,12.61,6.408c-1.508,2.667-2.375,5.733-2.375,9.001  c0,3.354,0.918,6.491,2.5,9.204C28.549,31.792,23.91,34.397,18.646,34.397z M47.528,34.487c-8.63,0-15.633-6.984-15.633-15.602  c0-8.612,7.002-15.596,15.633-15.596c4.42,0,8.404,1.838,11.248,4.778c-2.09,2.971-3.32,6.569-3.32,10.453  c0,4.062,1.355,7.806,3.624,10.851C56.22,32.507,52.111,34.487,47.528,34.487z M74.244,24.579c-3.8,0-6.882-2.866-6.882-6.397  c0-3.531,3.082-6.396,6.882-6.396c3.801,0,6.886,2.865,6.886,6.396C81.129,21.713,78.044,24.579,74.244,24.579z"/><path d="M74.28,13.168c-2.983,0-5.406,2.266-5.406,5.057c0,2.794,2.423,5.062,5.406,5.062c2.985,0,5.401-2.268,5.401-5.062  C79.681,15.434,77.265,13.168,74.28,13.168z M74.28,19.889c-1.095,0-1.977-0.785-1.977-1.755c0-0.967,0.882-1.755,1.977-1.755  c1.093,0,1.979,0.788,1.979,1.755C76.258,19.104,75.373,19.889,74.28,19.889z"/><polygon points="41.501,12.57 41.471,18.61 41.444,24.649 47.672,21.657 53.9,18.665 47.7,15.618 "/><path d="M21.245,22.222l-4.521-8.254c0.918-0.999,1.17-2.491,0.518-3.757c-0.624-1.206-1.893-1.86-3.176-1.767l1.618,3.131  l-2.421,1.254l-1.602-3.101c-0.774,0.992-0.955,2.374-0.345,3.555c0.642,1.242,1.971,1.898,3.293,1.756l4.614,8.422  c-0.77,0.992-0.948,2.369-0.339,3.547c0.623,1.207,1.893,1.861,3.175,1.768l-1.618-3.131l2.421-1.254l1.602,3.102  c0.774-0.992,0.955-2.375,0.346-3.557C24.123,22.61,22.653,21.95,21.245,22.222z"/></g><g transform="matrix(2.930800588250137,0,0,2.930800588250137,325.0760937137075,-4.767710295218494)"><path d="M8.5145 20.12 c-1.52 0 -2.74 -1.24 -2.74 -2.74 l0 -2.18 l1.94 0 l0 2.18 c0 0.44 0.36 0.8 0.8 0.8 s0.78 -0.36 0.78 -0.8 l0 -1.9 l-3.52 -4.86 l0 -2.48 c0 -1.52 1.22 -2.76 2.74 -2.76 c1.5 0 2.72 1.24 2.72 2.76 l0 2.16 l-1.94 0 l0 -2.16 c0 -0.46 -0.34 -0.8 -0.78 -0.8 s-0.8 0.34 -0.8 0.8 l0 1.82 l3.52 4.86 l0 2.56 c0 1.5 -1.22 2.74 -2.72 2.74 z M16.709 20.02 c-1.5 0 -2.7 -1.22 -2.7 -2.7 l0 -8.98 c0 -1.48 1.2 -2.68 2.7 -2.68 c1.48 0 2.68 1.2 2.68 2.68 l0 8.98 c0 1.48 -1.2 2.7 -2.68 2.7 z M16.709 7.56 c-0.44 0 -0.78 0.36 -0.78 0.78 l0 8.98 c0 0.44 0.34 0.78 0.78 0.78 c0.42 0 0.78 -0.34 0.78 -0.78 l0 -8.98 c0 -0.42 -0.36 -0.78 -0.78 -0.78 z M26.8635 10.62 l0 1.88 l-2.82 0 l0 7.46 l-1.88 0 l0 -14.24 l4.66 0 l0 1.9 l-2.78 0 l0 3 l2.82 0 z M36.558 5.68 l0 1.92 l-2.38 0 l0 12.42 l-1.92 0 l0 -12.42 l-2.62 0 l0 -1.92 l6.92 0 z"/></g></svg>
