<svg xmlns="http://www.w3.org/2000/svg" fill="none" viewBox="0 0 127 68" height="68" width="127">
<path fill="url(#paint0_linear_9526_210198)" d="M16.541 42.9322C14.8818 44.7829 12.4471 45.7381 9.64322 45.7381C6.89734 45.7381 4.61462 44.8792 2.82815 43.1282C1.04167 41.3773 0.148438 39.1969 0.148438 36.554C0.148438 33.9441 1.07476 31.7637 2.9274 29.9798C4.78004 28.1958 7.02967 27.3038 9.6763 27.3038C12.4239 27.3038 14.833 28.2693 16.4315 30.0318L14.2223 32.7342C13.7126 33.3577 12.9575 33.4847 12.3139 33.0008C11.6503 32.5017 10.6165 32.028 9.6763 32.028C7.29433 32.028 5.44169 33.7459 5.44169 36.4879C5.44169 39.1308 7.162 40.9809 9.6763 40.9809C10.6802 40.9809 11.7457 40.5019 12.4246 39.9922C13.068 39.5092 13.8218 39.6328 14.3334 40.2537L16.541 42.9322Z"></path>
<path fill="url(#paint1_linear_9526_210198)" d="M2.76454 30.1406C1.0208 31.8943 0.148926 34.0221 0.148926 36.5541C0.148926 39.197 1.04216 41.3774 2.82864 43.1283C4.61511 44.8793 6.89783 45.7382 9.6437 45.7382C12.4423 45.7382 14.8731 44.7866 16.532 42.9428C16.0244 43.0069 15.5071 43.04 14.9821 43.04C11.9458 43.04 8.55288 41.9451 6.41321 40.115C3.96071 37.876 2.67204 34.4466 2.76454 30.1406Z"></path>
<path fill="#2C2A47" d="M30.4743 28.3146C30.4743 28.3146 29.8819 27.5582 27.5657 27.5582C25.2494 27.5582 23.3899 28.8305 22.6395 30.429H22.6069V27.7539H17.5503V45.1748H20.8256C21.8274 45.1748 22.6395 44.3627 22.6395 43.3609V37.8019C22.6395 34.937 23.2986 31.4483 26.9599 32.3958C27.6089 32.5638 28.0962 32.3577 28.4461 31.7859L30.4743 28.3146Z"></path>
<path fill="#2C2A47" d="M61.4176 39.9225C61.4176 36.8886 59.1014 35.1595 54.6972 34.2461C53.1639 33.9198 52.4136 33.3979 52.4136 32.6475C52.4136 31.9624 53.1966 31.3752 54.2405 31.3752C55.1887 31.3752 56.1693 31.6998 57.0736 32.507C57.5773 32.9565 58.3312 32.913 58.8723 32.5092L61.0914 30.8532C59.9496 28.7327 57.6007 27.3299 54.371 27.3299C52.5441 27.3299 50.9782 27.8519 49.6406 28.8958C48.3357 29.9072 47.6832 31.2447 47.6832 32.8433C47.6832 35.6815 49.7385 37.5736 53.8817 38.4871C56.1 38.9764 56.6546 39.4984 56.6546 40.1835C56.6546 40.8686 55.8064 41.4558 54.5341 41.4558C53.1735 41.4558 51.8819 40.7407 50.9969 39.9447C50.4688 39.4698 49.6465 39.4935 49.076 39.9165L46.8676 41.5537C48.2704 44.2288 50.8151 45.5664 54.4689 45.5664C58.7752 45.5664 61.4176 43.2827 61.4176 39.9225Z"></path>
<path fill="#2C2A47" d="M126.31 40.8687C125.951 40.9666 125.559 40.9992 125.135 40.9992C123.145 40.9992 122.101 40.2163 122.101 38.2262V32.1583H126.408V27.7541H122.101V24.1199C122.101 23.1181 121.289 22.306 120.287 22.306H117.077V27.7541H113.427L114.63 30.7806C114.934 31.6023 115.557 32.1583 116.391 32.1583H117.012V38.8461C117.012 42.924 119.394 45.4034 123.928 45.4034C125.477 45.4034 126.31 45.2065 126.31 43.9595V40.8687Z"></path>
<path fill="#2C2A47" d="M114.051 45.3026V34.4717C114.051 32.5143 113.529 30.8831 112.453 29.5456C111.409 28.208 109.843 27.5555 107.755 27.5555C107.004 27.5555 106.091 27.5882 104.558 28.469C103.807 28.8931 103.253 29.4477 102.829 30.1654H102.796V29.2422C102.796 28.4909 102.187 27.8818 101.436 27.8818H97.7394V45.3026H102.829V35.6461C102.829 33.7214 103.905 32.2533 105.961 32.2533C107.951 32.2533 108.994 33.5909 108.994 35.6461V43.4887C108.994 44.4905 109.807 45.3026 110.808 45.3026H114.051Z"></path>
<path fill="#2C2A47" d="M78.4675 42.7957C76.8314 44.6233 74.4305 45.5665 71.6655 45.5665C68.9578 45.5665 66.7068 44.7183 64.9451 42.9893C63.1834 41.2602 62.3026 39.1071 62.3026 36.4972C62.3026 33.92 63.2161 31.7668 65.043 30.0052C66.8699 28.2435 69.0883 27.3627 71.6981 27.3627C74.4076 27.3627 76.7833 28.3161 78.3595 30.0566L76.0737 32.8568C75.6234 33.4084 74.9834 33.3247 74.4355 32.8699C73.7568 32.3064 72.6891 32.0278 71.6981 32.0278C69.3492 32.0278 67.5223 33.7242 67.5223 36.432C67.5223 39.0418 69.2188 40.8687 71.6981 40.8687C72.7547 40.8687 73.8525 40.585 74.5444 40.0113C75.0921 39.5572 75.7308 39.4704 76.1829 40.0198L78.4675 42.7957Z"></path>
<path fill="#2C2A47" d="M95.8582 37.9948C95.8909 37.6033 95.9235 36.9835 95.9235 36.1679C95.9235 33.5906 95.1079 31.4701 93.5093 29.8716C91.9108 28.273 89.8229 27.4574 87.2457 27.4574C84.7337 27.4574 82.5479 28.3383 80.721 30.1326C78.9267 31.9268 78.0133 34.0474 78.0133 36.5594C78.0133 39.2345 78.9267 41.4202 80.7536 43.1493C82.6132 44.8457 84.8642 45.6939 87.5719 45.6939C91.1279 45.6939 93.6072 44.389 95.0753 41.7465L92.2668 39.9073C91.7859 39.5924 91.1436 39.5206 90.7255 39.9149C89.879 40.7133 88.6832 41.4202 87.5067 41.4202C85.3209 41.4202 83.494 40.1153 83.2004 37.9948H95.8582ZM83.3309 34.6346C83.4287 33.9495 83.8202 33.2644 84.5053 32.6119C85.1904 31.9268 86.0712 31.6006 87.1152 31.6006C89.4314 31.6006 90.7037 33.1013 90.8342 34.6346H83.3309Z"></path>
<path fill="#2C2A47" d="M46.0088 37.8673C46.0414 37.4758 46.074 36.8559 46.074 36.0403C46.074 33.4631 45.2584 31.3426 43.6599 29.744C42.0613 28.1455 39.9734 27.3299 37.3962 27.3299C34.8842 27.3299 32.6984 28.2107 30.8715 30.005C29.0772 31.7993 28.1638 33.9198 28.1638 36.4318C28.1638 39.1069 29.0772 41.2927 30.9041 43.0217C32.7637 44.7182 35.0147 45.5664 37.7224 45.5664C41.2784 45.5664 43.7577 44.2614 45.2258 41.6189L42.5283 39.8524C41.9867 39.4978 41.2624 39.6741 40.7781 40.1037C39.9387 40.8483 38.7891 41.2927 37.6572 41.2927C35.4714 41.2927 33.6445 39.9878 33.3509 37.8673H46.0088ZM33.4814 34.507C33.5793 33.822 33.9707 33.1369 34.6558 32.4844C35.3409 31.7993 36.2217 31.4731 37.2657 31.4731C39.582 31.4731 40.8543 32.9737 40.9848 34.507H33.4814Z"></path>
<defs>
<linearGradient gradientUnits="userSpaceOnUse" y2="38.6089" x2="-0.80034" y1="28.744" x1="15.1968" id="paint0_linear_9526_210198">
<stop stop-color="#2D2A48"></stop>
<stop stop-color="#100727" offset="1"></stop>
</linearGradient>
<linearGradient gradientUnits="userSpaceOnUse" y2="47.3061" x2="9.66102" y1="30.153" x1="0.197266" id="paint1_linear_9526_210198">
<stop stop-color="#4F4C6B"></stop>
<stop stop-color="#2C2A47" offset="1"></stop>
</linearGradient>
</defs>
</svg>
