<svg xmlns="http://www.w3.org/2000/svg" fill="none" viewBox="0 0 209 69" height="69" width="209">
<path fill="#2C2A47" d="M0.894664 34.0909H0.825915C0.60847 34.0728 0.407048 33.9693 0.265734 33.8031C0.12442 33.6368 0.0547227 33.4213 0.0718975 33.2038C0.385657 29.4697 1.68682 25.8861 3.84198 22.8206C3.96828 22.6419 4.16019 22.5206 4.37571 22.4832C4.59122 22.4457 4.81281 22.4951 4.99197 22.6206C5.17114 22.7461 5.2933 22.9375 5.33172 23.1529C5.37015 23.3682 5.3217 23.59 5.197 23.7697C3.20945 26.5929 2.00924 29.8942 1.71965 33.3347C1.70137 33.541 1.60659 33.7329 1.45392 33.8729C1.30126 34.0128 1.10176 34.0906 0.894664 34.0909Z"></path>
<path fill="#2C2A47" d="M6.79365 21.2128C6.62972 21.2121 6.46968 21.1628 6.33385 21.071C6.19801 20.9792 6.09251 20.8492 6.03072 20.6973C5.96894 20.5455 5.95367 20.3787 5.98684 20.2182C6.02002 20.0576 6.10014 19.9106 6.21705 19.7956C8.95888 17.1215 12.3721 15.2376 16.096 14.343C19.82 13.4483 23.7165 13.576 27.3739 14.7127C27.583 14.778 27.7576 14.9236 27.8593 15.1177C27.961 15.3117 27.9814 15.5381 27.9161 15.7472C27.8508 15.9563 27.7052 16.1309 27.5111 16.2326C27.3171 16.3343 27.0907 16.3547 26.8816 16.2895C23.5085 15.235 19.9128 15.1141 16.4765 15.9396C13.0403 16.7651 9.89182 18.5061 7.36581 20.9777C7.21319 21.1279 7.00778 21.2123 6.79365 21.2128Z"></path>
<path fill="#2C2A47" d="M9.53027 52.6618C9.36334 52.662 9.20026 52.6117 9.06234 52.5177C5.41042 50.0177 2.62834 46.4419 1.10302 42.2874C0.582215 40.8724 0.214927 39.4054 0.00747839 37.9119C-0.00708323 37.8044 -0.000335507 37.6952 0.0273363 37.5903C0.0550081 37.4855 0.103062 37.3871 0.168754 37.3008C0.234447 37.2145 0.316491 37.142 0.410203 37.0874C0.503915 37.0328 0.607459 36.9973 0.714924 36.9827C0.822389 36.9681 0.931669 36.9749 1.03653 37.0026C1.14138 37.0302 1.23976 37.0783 1.32605 37.144C1.41233 37.2097 1.48484 37.2917 1.53941 37.3854C1.59399 37.4791 1.62958 37.5827 1.64414 37.6901C2.02279 40.4201 2.97674 43.0385 4.44287 45.3723C5.87636 47.6581 7.76329 49.6258 9.98712 51.1538C10.132 51.2538 10.2413 51.3974 10.2989 51.5637C10.3566 51.7301 10.3596 51.9105 10.3077 52.0787C10.2557 52.2469 10.1515 52.3942 10.0101 52.4991C9.86864 52.6039 9.69746 52.661 9.5214 52.6618H9.53027Z"></path>
<path fill="#2C2A47" d="M40.2744 28.4691C40.1084 28.4694 39.9461 28.42 39.8085 28.327C39.6709 28.2341 39.5644 28.1021 39.5027 27.9479C37.8428 23.6628 34.7338 20.0947 30.7161 17.8641C30.5241 17.7579 30.3821 17.5798 30.3214 17.3689C30.2607 17.1581 30.2862 16.9317 30.3923 16.7397C30.4985 16.5477 30.6766 16.4057 30.8875 16.3449C31.0983 16.2842 31.3247 16.3097 31.5167 16.4159C35.8765 18.8337 39.2508 22.7032 41.0528 27.3514C41.131 27.5561 41.1249 27.7834 41.036 27.9837C40.9471 28.184 40.7825 28.341 40.5782 28.4203C40.4809 28.4556 40.3779 28.4721 40.2744 28.4691Z"></path>
<path fill="#2C2A47" d="M35.6503 49.8897C35.4875 49.8901 35.3282 49.8423 35.1925 49.7524C35.0568 49.6625 34.9507 49.5344 34.8877 49.3843C34.8246 49.2342 34.8073 49.0688 34.8381 48.909C34.8688 48.7491 34.9462 48.6019 35.0604 48.4859C38.6368 44.8318 40.6364 39.9202 40.629 34.8071C40.6289 33.9044 40.5674 33.0026 40.445 32.1082C40.4288 31.8977 40.4937 31.6891 40.6264 31.5249C40.7591 31.3607 40.9495 31.2535 41.1587 31.2251C41.3678 31.1968 41.5799 31.2495 41.7515 31.3724C41.9231 31.4954 42.0412 31.6793 42.0816 31.8864C42.2147 32.8558 42.2814 33.8331 42.2812 34.8116C42.288 40.3556 40.1198 45.681 36.2424 49.6435C36.1651 49.722 36.0729 49.7842 35.9712 49.8265C35.8696 49.8688 35.7604 49.8903 35.6503 49.8897Z"></path>
<path fill="#2C2A47" d="M21.2318 56.0393C18.618 56.0432 16.0261 55.5627 13.5874 54.6222C13.4862 54.5831 13.3937 54.5246 13.3151 54.4498C13.2365 54.375 13.1735 54.2855 13.1295 54.1863C13.0855 54.0872 13.0615 53.9803 13.0588 53.8719C13.0562 53.7634 13.0749 53.6555 13.1139 53.5543C13.1529 53.4531 13.2115 53.3606 13.2863 53.282C13.3611 53.2035 13.4506 53.1404 13.5498 53.0964C13.6489 53.0525 13.7558 53.0285 13.8642 53.0258C13.9726 53.0231 14.0805 53.0418 14.1817 53.0809C16.8536 54.1112 19.7189 54.5431 22.5758 54.3461C25.4327 54.1492 28.2116 53.3282 30.7169 51.941C30.8117 51.8884 30.9159 51.855 31.0236 51.8427C31.1313 51.8304 31.2404 51.8395 31.3446 51.8693C31.4488 51.8992 31.5461 51.9493 31.6309 52.0168C31.7158 52.0842 31.7865 52.1677 31.839 52.2625C31.8916 52.3573 31.925 52.4615 31.9373 52.5692C31.9496 52.6769 31.9405 52.786 31.9107 52.8902C31.8808 52.9944 31.8307 53.0917 31.7632 53.1766C31.6958 53.2614 31.6123 53.3321 31.5175 53.3847C29.9796 54.2403 28.3405 54.8996 26.6385 55.3473C24.8733 55.8084 23.0562 56.0409 21.2318 56.0393Z"></path>
<path fill="#2C2A47" d="M18.2369 51.3534C18.1803 51.3529 18.1238 51.347 18.0683 51.3357C15.8713 50.8804 13.7891 49.985 11.9475 48.7033C10.131 47.4469 8.58012 45.8448 7.38346 43.9885C7.31479 43.8974 7.26571 43.7931 7.23929 43.6821C7.21287 43.5712 7.20969 43.4559 7.22994 43.3437C7.25019 43.2314 7.29344 43.1246 7.35697 43.0298C7.4205 42.9351 7.50294 42.8545 7.5991 42.7932C7.69527 42.7318 7.80308 42.691 7.91577 42.6733C8.02846 42.6556 8.14359 42.6615 8.25392 42.6904C8.36426 42.7194 8.46741 42.7708 8.5569 42.8415C8.6464 42.9123 8.72029 43.0007 8.77395 43.1014C9.85229 44.7759 11.2502 46.2213 12.8878 47.3549C14.5516 48.5072 16.4316 49.3106 18.4143 49.7168C18.6143 49.7589 18.7916 49.8736 18.9121 50.0387C19.0326 50.2038 19.0877 50.4077 19.0667 50.611C19.0458 50.8143 18.9503 51.0027 18.7987 51.1398C18.6471 51.2769 18.4501 51.353 18.2457 51.3534H18.2369Z"></path>
<path fill="#2C2A47" d="M22.4067 51.6373C22.1963 51.6325 21.9956 51.5476 21.8456 51.3999C21.6955 51.2522 21.6075 51.0529 21.5993 50.8426C21.5911 50.6322 21.6634 50.4267 21.8014 50.2678C21.9395 50.1089 22.133 50.0086 22.3424 49.9874C24.9197 49.7815 27.4014 48.9194 29.5512 47.4831C31.701 46.0468 33.4474 44.0841 34.624 41.7819C34.7282 41.5946 34.901 41.455 35.106 41.3926C35.311 41.3301 35.5323 41.3497 35.7231 41.4472C35.914 41.5446 36.0596 41.7123 36.1293 41.915C36.1989 42.1177 36.1872 42.3395 36.0966 42.5337C34.7942 45.0899 32.8578 47.2693 30.4726 48.8635C28.0875 50.4578 25.3333 51.4136 22.4733 51.6395L22.4067 51.6373Z"></path>
<path fill="#2C2A47" d="M37.0214 38.6261C36.9708 38.626 36.9204 38.6215 36.8706 38.6128C36.7637 38.5933 36.6617 38.553 36.5704 38.494C36.4791 38.4351 36.4003 38.3588 36.3386 38.2694C36.2768 38.18 36.2332 38.0793 36.2103 37.9731C36.1875 37.8669 36.1858 37.7572 36.2053 37.6503C36.8126 34.3733 36.3206 30.9875 34.8059 28.0189C34.7499 27.9218 34.7143 27.8144 34.7011 27.7031C34.6879 27.5918 34.6974 27.479 34.7291 27.3715C34.7608 27.2641 34.8141 27.1641 34.8856 27.0779C34.9571 26.9916 35.0453 26.9207 35.1451 26.8696C35.2448 26.8185 35.3538 26.7881 35.4656 26.7804C35.5774 26.7727 35.6896 26.7878 35.7954 26.8247C35.9012 26.8617 35.9983 26.9198 36.081 26.9954C36.1637 27.0711 36.2301 27.1627 36.2763 27.2648C36.8691 28.4229 37.3239 29.6466 37.6313 30.9107C38.1907 33.2171 38.2587 35.6154 37.8309 37.9497C37.7958 38.1391 37.6957 38.3102 37.5479 38.4337C37.4002 38.5572 37.214 38.6252 37.0214 38.6261Z"></path>
<path fill="#2C2A47" d="M32.2752 24.1156C32.0653 24.1166 31.863 24.0372 31.7097 23.8939C29.5494 21.849 26.8326 20.4887 23.9012 19.9841C23.794 19.9657 23.6915 19.9264 23.5995 19.8685C23.5075 19.8105 23.4278 19.735 23.365 19.6462C23.3022 19.5575 23.2575 19.4572 23.2334 19.3512C23.2094 19.2451 23.2064 19.1354 23.2248 19.0282C23.2431 18.9211 23.2824 18.8186 23.3404 18.7266C23.3983 18.6346 23.4738 18.5549 23.5626 18.4921C23.6513 18.4293 23.7516 18.3846 23.8576 18.3605C23.9637 18.3364 24.0734 18.3335 24.1806 18.3518C27.4322 18.91 30.4456 20.4186 32.8407 22.6874C33.0003 22.8378 33.0937 23.0453 33.1003 23.2645C33.107 23.4836 33.0264 23.6964 32.8762 23.8562C32.7985 23.9375 32.7053 24.0024 32.6021 24.047C32.4988 24.0916 32.3876 24.1149 32.2752 24.1156Z"></path>
<path fill="#2C2A47" d="M13.8833 21.501C13.7004 21.4984 13.5236 21.435 13.3807 21.3209C13.2378 21.2069 13.1368 21.0485 13.0936 20.8708C13.0505 20.6931 13.0676 20.5061 13.1423 20.3392C13.217 20.1722 13.345 20.0349 13.5063 19.9486C15.4101 18.9744 17.4837 18.3758 19.6138 18.1856C19.8257 18.1773 20.0326 18.2508 20.1919 18.3908C20.3512 18.5308 20.4506 18.7266 20.4697 18.9377C20.4888 19.1489 20.426 19.3594 20.2944 19.5256C20.1628 19.6919 19.9723 19.8012 19.7624 19.8311C17.8436 20.0032 15.9757 20.5423 14.2603 21.419C14.1428 21.4757 14.0136 21.5038 13.8833 21.501Z"></path>
<path fill="#2C2A47" d="M5.8287 40.2583C5.65057 40.258 5.47729 40.2002 5.33465 40.0935C5.192 39.9868 5.0876 39.8369 5.03698 39.6661C4.20522 36.8474 4.12689 33.8598 4.80979 31.0013C5.4927 28.1429 6.91298 25.5133 8.92904 23.3749C9.00251 23.2918 9.09195 23.2243 9.19203 23.1765C9.29211 23.1286 9.4008 23.1014 9.51161 23.0964C9.62243 23.0914 9.73312 23.1088 9.8371 23.1474C9.94108 23.1861 10.0362 23.2453 10.1169 23.3215C10.1975 23.3976 10.262 23.4893 10.3065 23.5909C10.351 23.6925 10.3746 23.802 10.376 23.9129C10.3773 24.0238 10.3563 24.1339 10.3142 24.2365C10.2721 24.3392 10.2098 24.4323 10.131 24.5104C8.31276 26.4379 7.03187 28.8087 6.41625 31.386C5.80062 33.9633 5.87178 36.657 6.62264 39.1982C6.68453 39.4085 6.66044 39.6347 6.55565 39.8272C6.45087 40.0198 6.27396 40.1628 6.06378 40.225C5.98733 40.2469 5.90822 40.2581 5.8287 40.2583Z"></path>
<path fill="#2C2A47" d="M21.1398 47.3328C19.3268 47.3381 17.5351 46.9428 15.8927 46.1751C15.7944 46.1293 15.7061 46.0645 15.6329 45.9845C15.5596 45.9045 15.5028 45.8109 15.4657 45.7089C15.4287 45.607 15.412 45.4988 15.4168 45.3904C15.4216 45.282 15.4476 45.1757 15.4935 45.0774C15.5394 44.9791 15.6042 44.8908 15.6841 44.8175C15.7641 44.7443 15.8578 44.6875 15.9597 44.6504C16.0616 44.6134 16.1699 44.5967 16.2782 44.6015C16.3866 44.6063 16.493 44.6323 16.5913 44.6782C18.1625 45.4056 19.8855 45.745 21.6152 45.6678C23.3449 45.5906 25.0308 45.0991 26.531 44.2347C26.6251 44.1738 26.7306 44.1327 26.8411 44.1139C26.9516 44.0951 27.0647 44.0989 27.1737 44.1252C27.2827 44.1514 27.3852 44.1995 27.475 44.2666C27.5648 44.3336 27.64 44.4182 27.6961 44.5153C27.7522 44.6123 27.788 44.7197 27.8013 44.831C27.8147 44.9423 27.8053 45.0551 27.7737 45.1626C27.7421 45.2701 27.6889 45.3701 27.6175 45.4565C27.5461 45.5429 27.4579 45.6138 27.3582 45.6651C25.4677 46.7572 23.323 47.3323 21.1398 47.3328Z"></path>
<path fill="#2C2A47" d="M31.1157 41.6644C30.9671 41.6647 30.8212 41.624 30.6943 41.5468C30.5059 41.4347 30.3696 41.2524 30.3156 41.0399C30.2615 40.8274 30.294 40.6021 30.406 40.4136C31.4007 38.7459 31.9249 36.8399 31.9229 34.8982C31.9226 34.4474 31.8945 33.9971 31.8386 33.5498C31.8164 33.3347 31.8792 33.1194 32.0137 32.9501C32.1482 32.7808 32.3437 32.6709 32.5583 32.6439C32.7728 32.6169 32.9894 32.6751 33.1617 32.8058C33.3339 32.9366 33.4481 33.1296 33.4797 33.3436C33.8215 36.0931 33.2395 38.8782 31.8253 41.2607C31.7524 41.3839 31.6485 41.486 31.5241 41.5568C31.3996 41.6276 31.2588 41.6646 31.1157 41.6644Z"></path>
<path fill="#2C2A47" d="M31.3002 30.1013C31.1526 30.1015 31.0077 30.062 30.8805 29.9871C30.7534 29.9123 30.6486 29.8046 30.5772 29.6755C29.6447 27.9901 28.2775 26.5854 26.6179 25.6077C24.9584 24.6299 23.0671 24.1147 21.1409 24.1157C20.6895 24.1153 20.2384 24.1427 19.7904 24.1978C19.7564 24.2 19.7223 24.2 19.6883 24.1978C19.4752 24.2026 19.2685 24.1247 19.1115 23.9805C18.9545 23.8362 18.8595 23.6368 18.8463 23.424C18.8331 23.2113 18.9028 23.0016 19.0408 22.8391C19.1787 22.6766 19.3742 22.5738 19.5863 22.5522C22.0526 22.2411 24.5556 22.6764 26.7721 23.8019C28.9886 24.9273 30.8169 26.6912 32.021 28.866C32.1273 29.0578 32.1532 29.2839 32.0929 29.4948C32.0326 29.7056 31.8911 29.8839 31.6994 29.9904C31.5781 30.0612 31.4406 30.0994 31.3002 30.1013Z"></path>
<path fill="#2C2A47" d="M11.0835 29.9194C10.9386 29.9196 10.7963 29.8813 10.671 29.8085C10.4815 29.6986 10.3434 29.518 10.2868 29.3064C10.2303 29.0948 10.26 28.8694 10.3694 28.6797C11.4629 26.7901 13.0327 25.2202 14.9223 24.1267C15.0163 24.0721 15.12 24.0366 15.2277 24.0221C15.3354 24.0076 15.4448 24.0144 15.5499 24.0422C15.6549 24.07 15.7534 24.1182 15.8398 24.1841C15.9262 24.25 15.9988 24.3322 16.0534 24.4261C16.108 24.5201 16.1435 24.6238 16.158 24.7315C16.1726 24.8392 16.1657 24.9486 16.1379 25.0536C16.1101 25.1587 16.0619 25.2572 15.996 25.3436C15.9301 25.43 15.8479 25.5026 15.754 25.5572C14.1143 26.5038 12.7511 27.8632 11.7998 29.5002C11.7279 29.627 11.6238 29.7325 11.498 29.8061C11.3722 29.8797 11.2292 29.9188 11.0835 29.9194Z"></path>
<path fill="#2C2A47" d="M12.6129 43.6026C12.4993 43.6028 12.3868 43.5795 12.2826 43.5341C12.1784 43.4886 12.0847 43.4221 12.0075 43.3387C9.88007 41.0432 8.69964 38.0279 8.70313 34.8981C8.70363 34.3135 8.74439 33.7296 8.82511 33.1506C8.86553 32.9434 8.98363 32.7595 9.15522 32.6366C9.3268 32.5137 9.5389 32.461 9.74807 32.4893C9.95724 32.5176 10.1477 32.6249 10.2803 32.789C10.413 32.9532 10.4779 33.1619 10.4618 33.3724C10.3918 33.875 10.3562 34.3818 10.3553 34.8893C10.3526 37.6029 11.3761 40.2172 13.2206 42.2077C13.2942 42.2873 13.3514 42.3806 13.3889 42.4824C13.4264 42.5841 13.4434 42.6922 13.4391 42.8006C13.4348 42.9089 13.4091 43.0153 13.3637 43.1138C13.3182 43.2122 13.2537 43.3007 13.174 43.3742C13.0235 43.5199 12.8224 43.6017 12.6129 43.6026Z"></path>
<path fill="#2C2A47" d="M15.4382 31.5449C15.2736 31.5993 15.0961 31.6005 14.9308 31.5486C14.7655 31.4967 14.6206 31.3941 14.5167 31.2554C14.4128 31.1167 14.3551 30.9488 14.3517 30.7756C14.3483 30.6023 14.3995 30.4323 14.4979 30.2897C15.4922 28.8498 16.9298 27.7744 18.5918 27.227C19.1064 27.0563 19.6369 26.9374 20.1752 26.8722C20.3884 26.8545 20.6001 26.9201 20.7659 27.0552C20.9318 27.1903 21.0389 27.3844 21.0647 27.5967C21.0905 27.8091 21.0331 28.0231 20.9045 28.194C20.7758 28.3649 20.586 28.4794 20.3748 28.5133C19.9459 28.5652 19.5232 28.6595 19.1129 28.795C17.7905 29.2308 16.647 30.0876 15.8573 31.2344C15.7546 31.3803 15.6077 31.4892 15.4382 31.5449Z"></path>
<path fill="#2C2A47" d="M28.6153 34.8227C28.5624 34.839 28.5083 34.8508 28.4534 34.8582C28.2358 34.8845 28.0167 34.8233 27.8441 34.6882C27.6716 34.5531 27.5597 34.355 27.5331 34.1374C27.4236 33.2354 27.1247 32.3667 26.6562 31.5882C26.1877 30.8098 25.5599 30.139 24.8142 29.62C24.7199 29.5604 24.6386 29.4824 24.5752 29.3906C24.5118 29.2988 24.4677 29.1952 24.4454 29.0859C24.4231 28.9766 24.4232 28.8639 24.4455 28.7546C24.4679 28.6454 24.5121 28.5418 24.5756 28.45C24.639 28.3583 24.7204 28.2803 24.8147 28.2208C24.9091 28.1614 25.0145 28.1216 25.1246 28.1039C25.2348 28.0862 25.3473 28.0909 25.4556 28.1178C25.5638 28.1448 25.6655 28.1933 25.7545 28.2605C26.6899 28.9136 27.4772 29.7566 28.0649 30.7345C28.6526 31.7123 29.0275 32.8031 29.1653 33.9356C29.1887 34.124 29.1468 34.3148 29.0468 34.4762C28.9467 34.6375 28.7945 34.7598 28.6153 34.8227Z"></path>
<path fill="#2C2A47" d="M23.6887 42.567C23.1734 42.7385 22.6422 42.8581 22.1031 42.924C21.8904 42.9405 21.6795 42.8742 21.5146 42.7389C21.3496 42.6037 21.2433 42.4099 21.2178 42.1981C21.1924 41.9863 21.2497 41.7728 21.3779 41.6023C21.5061 41.4318 21.6952 41.3173 21.9057 41.2829C22.8077 41.1734 23.6764 40.8746 24.4549 40.4061C25.2334 39.9375 25.9041 39.3098 26.4232 38.564C26.4849 38.4749 26.5636 38.3988 26.6547 38.3401C26.7459 38.2814 26.8477 38.2412 26.9544 38.2219C27.061 38.2025 27.1705 38.2044 27.2764 38.2273C27.3824 38.2502 27.4828 38.2938 27.5719 38.3556C27.661 38.4173 27.7371 38.496 27.7958 38.5871C27.8545 38.6783 27.8947 38.7801 27.9141 38.8868C27.9334 38.9935 27.9316 39.1029 27.9086 39.2089C27.8857 39.3148 27.8421 39.4152 27.7804 39.5043C26.7876 40.9447 25.3505 42.0204 23.6887 42.567Z"></path>
<path fill="#2C2A47" d="M17.2631 41.6444C17.1412 41.6847 17.0117 41.696 16.8846 41.6775C16.7576 41.659 16.6366 41.6113 16.5313 41.538C15.0916 40.5445 14.0161 39.1076 13.4686 37.4463C13.2978 36.9309 13.179 36.3997 13.1138 35.8606C13.0973 35.648 13.1636 35.4371 13.2989 35.2722C13.4342 35.1072 13.628 35.0009 13.8398 34.9754C14.0516 34.9499 14.265 35.0073 14.4355 35.1354C14.6061 35.2636 14.7205 35.4527 14.7549 35.6633C14.807 36.0921 14.9013 36.5148 15.0366 36.9251C15.473 38.2473 16.3296 39.3905 17.476 40.1807C17.5652 40.2424 17.6413 40.3211 17.7001 40.4122C17.7588 40.5034 17.799 40.6052 17.8184 40.7119C17.8378 40.8186 17.8359 40.928 17.8129 41.034C17.7899 41.14 17.7463 41.2404 17.6845 41.3295C17.5817 41.4772 17.4339 41.5876 17.2631 41.6444Z"></path>
<path fill="#2C2A47" d="M21.1405 33.6473C21.3879 33.6473 21.6297 33.7207 21.8354 33.8581C22.0411 33.9955 22.2014 34.1909 22.2961 34.4194C22.3908 34.648 22.4155 34.8995 22.3673 35.1421C22.319 35.3847 22.1999 35.6076 22.025 35.7825C21.85 35.9574 21.6272 36.0766 21.3846 36.1248C21.1419 36.1731 20.8904 36.1483 20.6619 36.0537C20.4333 35.959 20.238 35.7987 20.1006 35.593C19.9631 35.3873 19.8898 35.1455 19.8898 34.8981C19.8898 34.5664 20.0215 34.2482 20.2561 34.0136C20.4907 33.7791 20.8088 33.6473 21.1405 33.6473ZM21.1405 31.9951C20.5663 31.9947 20.0048 32.1646 19.5271 32.4833C19.0494 32.802 18.677 33.2552 18.457 33.7856C18.2369 34.316 18.1791 34.8998 18.2909 35.4631C18.4026 36.0263 18.6789 36.5438 19.0848 36.95C19.4907 37.3562 20.008 37.6329 20.5712 37.7451C21.1343 37.8573 21.7181 37.7999 22.2487 37.5803C22.7793 37.3606 23.2328 36.9886 23.5519 36.5111C23.871 36.0337 24.0413 35.4723 24.0413 34.8981C24.0413 34.1286 23.7357 33.3905 23.1918 32.8462C22.6479 32.3018 21.9101 31.9957 21.1405 31.9951Z"></path>
<path fill="#2C2A47" d="M59.715 26.2047H53.3369V21.7693H71.6196V26.2047H65.2437V42.5713H59.715V26.2047Z"></path>
<path fill="#2C2A47" d="M70.3594 28.4491H75.1496L75.205 30.5559C75.504 29.8434 75.9964 29.2288 76.6266 28.7817C77.2503 28.3666 77.9865 28.1529 78.7356 28.1696C79.2888 28.1577 79.8385 28.2604 80.3501 28.4712L79.9664 33.1284C79.3946 32.8904 78.7807 32.7697 78.1612 32.7736C77.2121 32.7736 76.4957 33.0885 76.0123 33.7183C75.5288 34.3481 75.2871 35.2833 75.2871 36.5237V42.5714H70.3594V28.4491Z"></path>
<path fill="#2C2A47" d="M86.0959 43.0083C84.4696 43.0083 83.2432 42.5019 82.4167 41.4892C81.5903 40.4764 81.1763 38.9935 81.1748 37.0405V28.4491H86.1003V36.1112C86.1003 37.7923 86.7301 38.632 87.9898 38.6305C88.2854 38.6458 88.5805 38.5904 88.8505 38.469C89.1204 38.3475 89.3576 38.1634 89.5422 37.932C89.9074 37.4663 90.09 36.7958 90.09 35.9205V28.4491H95.0177V42.5714H90.2031L90.1476 40.8194C89.8022 41.5118 89.2463 42.077 88.5597 42.4339C87.7997 42.8292 86.9524 43.0268 86.0959 43.0083Z"></path>
<path fill="#2C2A47" d="M102.053 43.0083C100.969 43.0121 99.8894 42.8841 98.8369 42.6268C97.9698 42.4372 97.1437 42.0939 96.3975 41.6133L96.9452 38.0273C97.6555 38.4824 98.4299 38.8285 99.2428 39.0541C100.061 39.2949 100.909 39.4196 101.762 39.4245C102.946 39.4245 103.536 39.1406 103.536 38.5751C103.537 38.4345 103.5 38.2963 103.427 38.1757C103.355 38.0552 103.251 37.957 103.126 37.892C102.594 37.6348 102.033 37.4413 101.456 37.3154C99.7218 36.8601 98.4858 36.2687 97.748 35.5413C97.0103 34.8139 96.6407 33.8107 96.6392 32.5319C96.6392 31.1258 97.1774 30.0214 98.2537 29.2186C99.33 28.4158 100.808 28.0144 102.689 28.0144C103.632 28.0145 104.573 28.1156 105.494 28.316C106.294 28.4727 107.064 28.7493 107.781 29.1366L107.289 32.6671C106.607 32.3306 105.891 32.0696 105.153 31.8887C104.447 31.7042 103.721 31.6073 102.991 31.6004C101.987 31.6004 101.485 31.8739 101.485 32.421C101.486 32.5672 101.529 32.71 101.607 32.8334C101.685 32.9569 101.797 33.056 101.928 33.1195C102.458 33.3772 103.018 33.5658 103.596 33.6806C105.295 34.099 106.527 34.6904 107.293 35.4548C108.059 36.2191 108.442 37.2408 108.442 38.5196C108.442 39.9434 107.885 41.0478 106.772 41.8329C105.659 42.6179 104.085 43.0097 102.053 43.0083Z"></path>
<path fill="#2C2A47" d="M116.368 43.0082C114.578 43.0082 113.242 42.5521 112.359 41.6399C111.476 40.7277 111.033 39.332 111.028 37.4529V32.4165H108.622V28.4491H111.03V24.8098H115.929V28.4491H119.921V32.4165H115.929V36.3308C115.929 37.172 116.066 37.7634 116.34 38.1049C116.613 38.4464 117.088 38.6202 117.763 38.6261C118.562 38.6488 119.353 38.4695 120.063 38.1049L120.556 42.1833C119.981 42.4722 119.368 42.6755 118.735 42.7865C117.955 42.9363 117.163 43.0106 116.368 43.0082Z"></path>
<path fill="#2C2A47" d="M128.518 43.0083C127.602 43.0046 126.687 42.9305 125.782 42.7865C124.894 42.6504 124.02 42.4397 123.167 42.1567C122.468 41.9362 121.801 41.623 121.185 41.2253L121.677 36.7655C122.631 37.3737 123.674 37.8308 124.768 38.1205C125.908 38.4483 127.087 38.6184 128.272 38.6261C129.295 38.6261 130.08 38.4576 130.625 38.1205C130.88 37.9785 131.092 37.7696 131.237 37.5164C131.382 37.2632 131.455 36.9752 131.448 36.6834C131.456 36.3405 131.333 36.0075 131.104 35.752C130.793 35.4429 130.421 35.202 130.011 35.0446C129.32 34.7618 128.611 34.524 127.889 34.3327C125.644 33.694 124.025 32.8505 123.032 31.8023C122.038 30.754 121.54 29.3717 121.537 27.6552C121.537 25.7036 122.244 24.1616 123.657 23.0291C125.071 21.8966 127.001 21.331 129.448 21.3325C130.633 21.3362 131.814 21.4852 132.963 21.7761C134.008 22.014 135.01 22.4104 135.934 22.9514L135.223 27.2493C134.391 26.7582 133.496 26.3851 132.561 26.1405C131.623 25.8721 130.654 25.7296 129.678 25.7169C127.783 25.7169 126.835 26.3186 126.833 27.5221C126.829 27.7572 126.887 27.9893 127 28.1956C127.112 28.402 127.276 28.5757 127.476 28.6997C127.903 28.9954 128.738 29.3236 129.98 29.6844C132.443 30.3955 134.208 31.2759 135.276 32.3257C136.343 33.3754 136.877 34.7577 136.877 36.4728C136.877 38.5426 136.143 40.1482 134.675 41.2896C133.207 42.431 131.155 43.0039 128.518 43.0083Z"></path>
<path fill="#2C2A47" d="M144.64 43.0082C142.853 43.0082 141.516 42.5521 140.63 41.6399C139.745 40.7277 139.301 39.332 139.3 37.4529V32.4165H136.894V28.4491H139.302V24.8098H144.203V28.4491H148.195V32.4165H144.203V36.3308C144.203 37.1713 144.338 37.7634 144.613 38.1049C144.888 38.4464 145.361 38.6261 146.035 38.6261C146.833 38.6488 147.624 38.4695 148.335 38.1049L148.827 42.1833C148.253 42.4726 147.639 42.6758 147.006 42.7865C146.226 42.9363 145.434 43.0106 144.64 43.0082Z"></path>
<path fill="#2C2A47" d="M154.026 43.0082C152.567 43.0082 151.413 42.612 150.564 41.8196C149.716 41.0271 149.291 39.9456 149.291 38.5751C149.27 37.9293 149.396 37.2872 149.659 36.6971C149.922 36.107 150.316 35.5844 150.81 35.1687C151.822 34.3023 153.152 33.8684 154.802 33.8669C155.368 33.8706 155.932 33.9308 156.486 34.0465C157.034 34.1506 157.571 34.3111 158.087 34.5255C158.034 33.6119 157.742 32.9362 157.213 32.4986C156.684 32.0609 155.899 31.8392 154.858 31.8333C153.315 31.8285 151.807 32.2925 150.533 33.1639L150.205 29.3583C150.964 28.9094 151.787 28.5774 152.645 28.3737C153.605 28.1226 154.593 27.9937 155.585 27.99C157.903 27.99 159.664 28.5607 160.868 29.7021C162.071 30.8434 162.674 32.4993 162.675 34.6697V42.5514H158.213L158.158 41.1831C157.229 42.4013 155.852 43.0097 154.026 43.0082ZM155.559 39.7527C155.877 39.7629 156.193 39.706 156.488 39.5856C156.783 39.4653 157.049 39.2842 157.268 39.0541C157.742 38.5297 158.018 37.8569 158.049 37.1513C157.362 36.8756 156.627 36.7363 155.887 36.741C155.347 36.7108 154.811 36.8546 154.359 37.1513C154.182 37.2729 154.037 37.4367 153.94 37.628C153.842 37.8193 153.793 38.032 153.798 38.2468C153.79 38.4538 153.829 38.6598 153.912 38.8495C153.995 39.0392 154.119 39.2077 154.277 39.3424C154.639 39.6317 155.095 39.7777 155.559 39.7527Z"></path>
<path fill="#2C2A47" d="M164.398 28.4491H169.189L169.242 30.1722C169.6 29.488 170.159 28.9293 170.843 28.571C171.61 28.1827 172.461 27.99 173.32 28.0099C174.173 27.9899 175.015 28.1982 175.76 28.6132C176.458 29.0212 177.027 29.6186 177.401 30.3363C177.803 29.6055 178.412 29.0105 179.153 28.6265C179.975 28.2022 180.889 27.9903 181.814 28.0099C183.458 28.0099 184.704 28.5163 185.551 29.5291C186.398 30.5418 186.822 32.0247 186.822 33.9778V42.5714H181.914V34.907C181.914 34.051 181.765 33.4167 181.47 33.0064C181.175 32.5961 180.692 32.3833 180.053 32.3833C179.768 32.369 179.485 32.4253 179.227 32.5472C178.969 32.669 178.746 32.8527 178.576 33.0818C178.228 33.5453 178.055 34.2173 178.055 35.0933V42.5647H173.156V34.907C173.156 34.051 173.008 33.4174 172.713 33.0064C172.417 32.5954 171.953 32.3877 171.322 32.3833C171.033 32.3671 170.745 32.4224 170.483 32.5442C170.221 32.6661 169.992 32.8507 169.818 33.0818C169.47 33.5453 169.297 34.2173 169.297 35.0933V42.5647H164.398V28.4491Z"></path>
<path fill="#2C2A47" d="M188.702 28.4491H193.328L193.382 30.0635C193.8 29.4078 194.393 28.8818 195.094 28.5444C195.855 28.1803 196.69 27.9974 197.533 28.01C198.693 27.9926 199.834 28.3114 200.817 28.9281C201.814 29.5679 202.614 30.4724 203.126 31.5405C203.711 32.761 204.001 34.1017 203.973 35.4548C203.991 36.764 203.71 38.0601 203.153 39.2448C202.636 40.3493 201.833 41.295 200.826 41.9837C199.818 42.6681 198.623 43.0258 197.404 43.0082C196.665 43.0154 195.933 42.8642 195.258 42.5647C194.621 42.2874 194.062 41.8597 193.628 41.3184V49.2843H188.702V28.4491ZM196.2 38.6305C196.588 38.6407 196.974 38.5667 197.331 38.4136C197.688 38.2604 198.007 38.0318 198.267 37.7434C198.817 37.1285 199.107 36.3237 199.074 35.4991C199.103 34.6802 198.815 33.8817 198.269 33.2703C198.009 32.982 197.69 32.7533 197.333 32.6002C196.976 32.4471 196.591 32.3731 196.202 32.3833C195.816 32.3722 195.433 32.4459 195.078 32.5991C194.724 32.7524 194.407 32.9815 194.151 33.2703C193.609 33.8891 193.324 34.6925 193.357 35.5146C193.324 36.3368 193.609 37.1402 194.151 37.759C194.409 38.0447 194.725 38.2707 195.079 38.4212C195.433 38.5718 195.816 38.6432 196.2 38.6305Z"></path>
<path fill="#2C2A47" d="M205.025 28.1697H204.479V27.7838H206.045V28.1697H205.5V29.5691H205.025V28.1697Z"></path>
<path fill="#2C2A47" d="M206.206 27.7838H206.649L207.166 28.8084L207.672 27.7838H208.115L208.221 29.558H207.778L207.736 28.4846L207.334 29.2785H206.973L206.578 28.5112L206.538 29.5713H206.095L206.206 27.7838Z"></path>
</svg>
