<svg xmlns="http://www.w3.org/2000/svg" viewBox="0 0 440 180" fill="none" role="img" aria-label="Интерфейс BI-дашборда с графиками">
  <defs>
    <linearGradient id="biBg" x1="0" y1="0" x2="1" y2="1">
      <stop offset="0" stop-color="#b14bff"/>
      <stop offset="1" stop-color="#ff4ec0"/>
    </linearGradient>
  </defs>
  <rect width="440" height="180" fill="url(#biBg)"/>
  <!-- dashboard card -->
  <rect x="28" y="20" width="384" height="140" rx="16" fill="#ffffff"/>
  <!-- KPI tiles -->
  <rect x="44" y="34" width="108" height="40" rx="9" fill="#faf7ff"/>
  <rect x="56" y="44" width="40" height="10" rx="5" fill="#b14bff"/>
  <rect x="56" y="59" width="64" height="6" rx="3" fill="#c9c9d6"/>
  <rect x="166" y="34" width="108" height="40" rx="9" fill="#faf7ff"/>
  <rect x="178" y="44" width="52" height="10" rx="5" fill="#ff4ec0"/>
  <rect x="178" y="59" width="60" height="6" rx="3" fill="#c9c9d6"/>
  <rect x="288" y="34" width="108" height="40" rx="9" fill="#faf7ff"/>
  <rect x="300" y="44" width="34" height="10" rx="5" fill="#6f4cff"/>
  <rect x="300" y="59" width="58" height="6" rx="3" fill="#c9c9d6"/>
  <!-- bar chart -->
  <g>
    <rect x="48" y="120" width="16" height="24" rx="3" fill="#b14bff"/>
    <rect x="72" y="106" width="16" height="38" rx="3" fill="#b14bff"/>
    <rect x="96" y="114" width="16" height="30" rx="3" fill="#d79bff"/>
    <rect x="120" y="92" width="16" height="52" rx="3" fill="#b14bff"/>
    <rect x="144" y="100" width="16" height="44" rx="3" fill="#d79bff"/>
  </g>
  <line x1="44" y1="146" x2="172" y2="146" stroke="#eee" stroke-width="1.5"/>
  <!-- line chart -->
  <polyline points="196,132 232,116 268,122 304,98 340,104 388,84" fill="none" stroke="#ff4ec0" stroke-width="3" stroke-linecap="round" stroke-linejoin="round"/>
  <circle cx="388" cy="84" r="4" fill="#ff4ec0"/>
  <line x1="196" y1="146" x2="396" y2="146" stroke="#eee" stroke-width="1.5"/>
</svg>
