<svg xmlns="http://www.w3.org/2000/svg" viewBox="0 0 440 180" fill="none" role="img" aria-label="Интерфейс приложения доставки с картой">
  <defs>
    <linearGradient id="delBg" x1="0" y1="0" x2="1" y2="1">
      <stop offset="0" stop-color="#4ea8ff"/>
      <stop offset="1" stop-color="#6f4cff"/>
    </linearGradient>
  </defs>
  <rect width="440" height="180" fill="url(#delBg)"/>
  <!-- map streets -->
  <g stroke="#ffffff" stroke-width="2" opacity="0.18">
    <line x1="0" y1="56" x2="440" y2="40"/>
    <line x1="0" y1="104" x2="440" y2="120"/>
    <line x1="120" y1="0" x2="100" y2="180"/>
    <line x1="300" y1="0" x2="320" y2="180"/>
  </g>
  <!-- route -->
  <path d="M64 46C150 60 150 116 244 104S360 64 392 112" stroke="#ffffff" stroke-width="4" stroke-linecap="round" stroke-dasharray="1 9" fill="none"/>
  <circle cx="64" cy="46" r="8" fill="#fff"/>
  <circle cx="64" cy="46" r="3.5" fill="#4ea8ff"/>
  <!-- destination pin -->
  <path d="M392 96c-9 0-16 7-16 16 0 11 16 22 16 22s16-11 16-22c0-9-7-16-16-16z" fill="#fff"/>
  <circle cx="392" cy="112" r="6" fill="#6f4cff"/>
  <!-- order card -->
  <rect x="24" y="120" width="392" height="44" rx="13" fill="#ffffff"/>
  <rect x="36" y="132" width="22" height="22" rx="7" fill="#6f4cff"/>
  <rect x="70" y="132" width="120" height="7" rx="3.5" fill="#0a0a14"/>
  <rect x="70" y="145" width="80" height="5" rx="2.5" fill="#9aa"/>
  <rect x="250" y="133" width="154" height="8" rx="4" fill="#eef0f6"/>
  <rect x="250" y="133" width="104" height="8" rx="4" fill="#22c55e"/>
  <rect x="250" y="148" width="60" height="5" rx="2.5" fill="#9aa"/>
</svg>
