<svg xmlns="http://www.w3.org/2000/svg" viewBox="0 0 440 180" fill="none" role="img" aria-label="Интерфейс панели кибербезопасности">
  <defs>
    <linearGradient id="secBg" x1="0" y1="0" x2="1" y2="1">
      <stop offset="0" stop-color="#1f1f4a"/>
      <stop offset="1" stop-color="#6f4cff"/>
    </linearGradient>
  </defs>
  <rect width="440" height="180" fill="url(#secBg)"/>
  <circle cx="384" cy="36" r="54" fill="#ffffff" opacity="0.06"/>
  <!-- panel -->
  <rect x="28" y="22" width="384" height="136" rx="16" fill="#ffffff"/>
  <!-- shield -->
  <path d="M70 40l26 9v18c0 16-11 28-26 32-15-4-26-16-26-32V49l26-9z" fill="#6f4cff"/>
  <path d="M58 66l9 9 17-18" stroke="#fff" stroke-width="4" stroke-linecap="round" stroke-linejoin="round" fill="none"/>
  <!-- big metric -->
  <text x="112" y="58" font-family="Inter, sans-serif" font-size="30" font-weight="800" fill="#0a0a14">0</text>
  <rect x="140" y="40" width="120" height="8" rx="4" fill="#0a0a14" opacity="0.85"/>
  <rect x="140" y="55" width="86" height="6" rx="3" fill="#9aa"/>
  <rect x="300" y="38" width="98" height="26" rx="13" fill="#e9fbef"/>
  <circle cx="316" cy="51" r="5" fill="#22c55e"/>
  <rect x="328" y="48" width="58" height="6" rx="3" fill="#16a34a"/>
  <!-- checklist -->
  <g>
    <rect x="48" y="92" width="350" height="18" rx="6" fill="#f5f5fa"/>
    <circle cx="62" cy="101" r="6" fill="#22c55e"/>
    <path d="M59 101l2 2 4-4" stroke="#fff" stroke-width="1.6" stroke-linecap="round" stroke-linejoin="round" fill="none"/>
    <rect x="78" y="98" width="150" height="6" rx="3" fill="#c9c9d6"/>
    <rect x="356" y="98" width="30" height="6" rx="3" fill="#22c55e"/>

    <rect x="48" y="116" width="350" height="18" rx="6" fill="#f5f5fa"/>
    <circle cx="62" cy="125" r="6" fill="#22c55e"/>
    <path d="M59 125l2 2 4-4" stroke="#fff" stroke-width="1.6" stroke-linecap="round" stroke-linejoin="round" fill="none"/>
    <rect x="78" y="122" width="186" height="6" rx="3" fill="#c9c9d6"/>
    <rect x="356" y="122" width="30" height="6" rx="3" fill="#22c55e"/>
  </g>
</svg>
